<?xml version="1.0" encoding="UTF-8"?>
<svg id="Layer_1" xmlns="http://www.w3.org/2000/svg" version="1.1" viewBox="0 0 24 24">
  <!-- Generator: Adobe Illustrator 30.0.0, SVG Export Plug-In . SVG Version: 2.1.1 Build 123)  -->
  <path d="M20.9,12c0,.5-.5,1-1,1h-2v1.3c0,.5-.4,1-1,1s-1-.5-1-1v-1.3H4.1c-.5,0-1-.5-1-1s.5-1,1-1h11.7v-1.3c0-.5.4-1,1-1s1,.5,1,1v1.3h2c.5,0,1,.5,1,1Z"/>
  <path d="M3.1,5.8c0-.5.5-1,1-1h2.2v-1.3c0-.6.4-1,1-1s1,.4,1,1v1.3h11.5c.5,0,1,.5,1,1s-.5,1-1,1h-11.5v1.3c0,.5-.5,1-1,1s-1-.5-1-1v-1.3h-2.2c-.5,0-1-.4-1-1Z"/>
  <path d="M20.9,18.2c0,.6-.5,1-1,1h-8.1v1.3c0,.6-.4,1-1,1s-1-.4-1-1v-1.3h-5.6c-.5,0-1-.4-1-1s.5-1,1-1h5.6v-1.3c0-.5.4-1,1-1s1,.5,1,1v1.3h8.1c.5,0,1,.4,1,1Z"/>
</svg>