<svg xmlns="http://www.w3.org/2000/svg" id="Layer_1" viewBox="0 0 24 24"><defs><style>.st0{fill:none;stroke:#000;stroke-linecap:round;stroke-linejoin:round;stroke-width:2px}</style></defs><path d="M16 21v-2c0-2.2-1.8-4-4-4H5c-2.2 0-4 1.8-4 4v2" class="st0"/><circle cx="8.5" cy="7" r="4" class="st0"/><rect width="7.9" height="6.8" x="15" y="6.6" class="st0" rx="1" ry="1"/><path d="M17.9 6.6v-2c0-.6.5-1 1.1-1s1.1.4 1.1 1v2" class="st0"/><path d="m21.2 8.7-1.2.2c0-.2-.1-.3-.2-.3l-.2-.2v1c.7.2 1.1.4 1.3.6.3.3.4.6.4 1s0 .5-.2.7c-.1.2-.2.4-.4.5s-.3.2-.5.3c-.2 0-.4 0-.7.1v.6H19v-.6c-.3 0-.6 0-.8-.2-.2 0-.4-.2-.5-.3s-.3-.3-.3-.4c0-.2-.1-.3-.2-.6l1.3-.2c0 .2 0 .4.2.5l.3.3v-1.2c-.4-.1-.8-.2-.9-.3-.2 0-.3-.2-.5-.4s-.2-.4-.2-.7.1-.7.4-1 .7-.4 1.2-.4v-.3h.5v.3c.5 0 .9.1 1.1.4.3.2.4.5.5.8ZM19 8.4c-.1 0-.2.1-.3.2s0 .1 0 .2v.3s.2.1.3.2zm.5 3.3c.2 0 .3-.1.4-.2s.1-.2.1-.3 0-.2-.1-.3c0 0-.2-.2-.4-.2v1.1Z"/></svg>