<svg xmlns="http://www.w3.org/2000/svg" id="Layer_1" viewBox="0 0 24 24"><defs><style>.st2{stroke:#000;stroke-width:2px;fill:none;stroke-miterlimit:10}</style></defs><path d="M14 2H6c-1.1 0-2 .9-2 2v16c0 1.1.9 2 2 2h12c1.1 0 2-.9 2-2V8z" class="st2"/><path d="M14 2v6h6" class="st2"/><path d="M16 13H8m8 4H8" style="stroke:#000;stroke-width:2px;fill:none;stroke-linecap:round;stroke-linejoin:round"/><path d="M11.5 7.5C10.1 7 9.4 6.1 9 5c-.1 1.3-1 2-2.5 2.5 1.3.4 2 1.2 2.5 2.5.6-1.2 1.4-2 2.5-2.5" style="fill:#fff;stroke-linecap:round;stroke-linejoin:round;stroke:#000;stroke-width:2px"/></svg>