<?xml version="1.0" encoding="UTF-8"?>
<svg id="Layer_1" xmlns="http://www.w3.org/2000/svg" version="1.1" viewBox="0 0 24 24">
  <!-- Generator: Adobe Illustrator 30.1.0, SVG Export Plug-In . SVG Version: 2.1.1 Build 136)  -->
  <defs>
    <style>
      .st0 {
        fill: #fff;
      }

      .st0, .st1 {
        stroke-linecap: round;
        stroke-linejoin: round;
      }

      .st0, .st1, .st2 {
        stroke: #000;
        stroke-width: 2px;
      }

      .st1, .st2 {
        fill: none;
      }

      .st2 {
        stroke-miterlimit: 10;
      }
    </style>
  </defs>
  <path class="st2" d="M14,2H6c-1.1,0-2,.9-2,2v16c0,1.1.9,2,2,2h12c1.1,0,2-.9,2-2v-12l-6-6Z"/>
  <polyline class="st2" points="14 2 14 8 20 8"/>
  <line class="st1" x1="16" y1="13" x2="8" y2="13"/>
  <line class="st1" x1="16" y1="17" x2="8" y2="17"/>
  <path class="st0" d="M11.5,7.5c-1.4-.5-2.1-1.4-2.5-2.5-.1,1.3-1,2-2.5,2.5,1.3.4,2,1.2,2.5,2.5.6-1.2,1.4-2,2.5-2.5"/>
</svg>