<svg xmlns="http://www.w3.org/2000/svg" id="Layer_1" viewBox="0 0 24 24"><defs><style>.st2{fill:none;stroke:#000;stroke-miterlimit:10;stroke-width:2px}</style></defs><path d="M16 21v-2c0-2.2-1.8-4-4-4H5c-2.2 0-4 1.8-4 4v2" style="stroke-linecap:round;fill:none;stroke:#000;stroke-miterlimit:10;stroke-width:2px"/><circle cx="8.5" cy="7" r="4" class="st2"/><rect width="7.9" height="6.5" x="15.1" y="5.5" class="st2" rx="1" ry="1"/><path d="M17.3 5.4v-2c0-.6.8-1 1.8-1s1.8.4 1.8 1v2" class="st2"/><path d="M19 7v3.6m-.9-.7h1.4c.3 0 .5-.3.5-.6s-.2-.6-.5-.6h-.9c-.3 0-.5-.3-.5-.6s.2-.6.5-.6H20" style="stroke-linecap:round;fill:none;stroke:#000;stroke-linejoin:round;stroke-width:.5px"/></svg>