<?xml version="1.0" encoding="UTF-8"?>
<svg id="Layer_1" xmlns="http://www.w3.org/2000/svg" version="1.1" viewBox="0 0 24 24">
  <!-- Generator: Adobe Illustrator 30.1.0, SVG Export Plug-In . SVG Version: 2.1.1 Build 136)  -->
  <defs>
    <style>
      .st0 {
        fill: #fff;
        stroke: #000;
        stroke-linecap: round;
        stroke-linejoin: round;
        stroke-width: 2px;
      }
    </style>
  </defs>
  <path class="st0" d="M16,21v-2c0-2.2-1.8-4-4-4h-7c-2.2,0-4,1.8-4,4v2"/>
  <circle class="st0" cx="8.5" cy="7" r="4"/>
  <path class="st0" d="M22.7,13.8l-4.6-4.6c-.1-.1-.3-.2-.5-.2h-2.3c-.4,0-.7.3-.7.7v2.3c0,.2,0,.4.2.5l4.6,4.6c.3.3.7.3,1,0l2.3-2.3c.3-.3.3-.7,0-1"/>
</svg>