<?xml version="1.0" encoding="UTF-8"?>
<svg id="Layer_1" xmlns="http://www.w3.org/2000/svg" version="1.1" viewBox="0 0 24 24">
  <!-- Generator: Adobe Illustrator 30.1.0, SVG Export Plug-In . SVG Version: 2.1.1 Build 136)  -->
  <defs>
    <style>
      .st0, .st1 {
        stroke-linecap: round;
      }

      .st0, .st1, .st2 {
        fill: none;
        stroke: #000;
      }

      .st0, .st2 {
        stroke-miterlimit: 10;
        stroke-width: 2px;
      }

      .st1 {
        stroke-linejoin: round;
        stroke-width: .5px;
      }
    </style>
  </defs>
  <path class="st0" d="M16,21v-2c0-2.2-1.8-4-4-4h-7c-2.2,0-4,1.8-4,4v2"/>
  <circle class="st2" cx="8.5" cy="7" r="4"/>
  <rect class="st2" x="15.1" y="5.5" width="7.9" height="6.5" rx="1" ry="1"/>
  <path class="st2" d="M17.3,5.4v-2c0-.6.8-1,1.8-1s1.8.4,1.8,1v2"/>
  <path class="st1" d="M19,7v3.6M18.1,9.9h1.4c.3,0,.5-.3.5-.6s-.2-.6-.5-.6h-.9c-.3,0-.5-.3-.5-.6s.2-.6.5-.6h1.4"/>
</svg>