<?xml version="1.0" encoding="UTF-8"?>
<svg id="Layer_1" xmlns="http://www.w3.org/2000/svg" version="1.1" viewBox="0 0 24 24">
  <!-- Generator: Adobe Illustrator 30.1.0, SVG Export Plug-In . SVG Version: 2.1.1 Build 136)  -->
  <defs>
    <style>
      .st0 {
        fill: none;
        stroke: #000;
        stroke-miterlimit: 10;
        stroke-width: 2px;
      }
    </style>
  </defs>
  <path class="st0" d="M20.3,13v-2l2-1.6c.2-.1.2-.4.1-.6l-1.9-3.3c-.2-.4-.8-.6-1.2-.4l-2.4,1c-.5-.4-1-.7-1.6-.9l-.4-2.5c0-.5-.5-.9-1-.9h-3.8c-.5,0-.9.4-1,.9l-.4,2.5c-.6.2-1.1.6-1.6.9l-2.4-1c-.5-.2-1,0-1.2.4l-1.9,3.3c-.1.2,0,.5.1.6l2,1.6v2l-2,1.6c-.2.1-.2.4-.1.6l1.9,3.3c.2.4.8.6,1.2.4l2.4-1c.5.4,1,.7,1.6.9l.4,2.5c0,.5.5.9,1,.9h3.8c.5,0,.9-.4,1-.9l.4-2.5c.6-.2,1.1-.6,1.6-.9l2.4,1c.5.2,1,0,1.2-.4l1.9-3.3c.1-.2,0-.5-.1-.6l-2-1.6ZM15.5,12.2c-.1,1.8-1.7,3.3-3.5,3.3s-3.4-1.5-3.5-3.3v-.4c.1-1.8,1.7-3.3,3.5-3.3s3.4,1.5,3.5,3.3v.4Z"/>
</svg>