<?xml version="1.0" encoding="UTF-8"?>
<svg id="Layer_1" xmlns="http://www.w3.org/2000/svg" version="1.1" viewBox="0 0 24 24">
  <!-- Generator: Adobe Illustrator 30.1.0, SVG Export Plug-In . SVG Version: 2.1.1 Build 136)  -->
  <defs>
    <style>
      .st0 {
        stroke: #fff;
      }

      .st0, .st1, .st2 {
        fill: none;
      }

      .st0, .st2 {
        stroke-miterlimit: 10;
      }

      .st1 {
        stroke-linecap: round;
        stroke-linejoin: round;
      }

      .st1, .st2 {
        stroke: #000;
        stroke-width: 2px;
      }
    </style>
  </defs>
  <path class="st1" d="M16,21v-2c0-2.2-1.8-4-4-4h-7c-2.2,0-4,1.8-4,4v2"/>
  <circle class="st1" cx="8.5" cy="7" r="4"/>
  <polygon class="st2" points="19 8.9 19 8.9 19 8.9 19 8.9"/>
  <path class="st2" d="M20.7,7.2c-.4-.4-1-.7-1.7-.7s-1.3.3-1.7.7c-.4.4-.7,1-.7,1.7s.3,1.3.7,1.7c.4.4,1,.7,1.7.7s1.3-.3,1.7-.7c.4-.4.7-1,.7-1.7s-.3-1.3-.7-1.7ZM19,9.4c-.2,0-.3,0-.4-.2-.1-.1-.2-.3-.2-.4s0-.3.2-.4c.1-.1.3-.2.4-.2s.3,0,.4.2c.1.1.2.2.2.4s0,.3-.2.4c-.1.1-.2.2-.4.2Z"/>
  <polygon class="st2" points="19 8.9 19 8.9 19 8.9 19 8.9"/>
  <polyline class="st1" points="19 5.4 19 6.4 19 8.3"/>
  <line class="st2" x1="19" y1="8.9" x2="19" y2="8.9"/>
  <polyline class="st1" points="19 9.4 19 11.3 19 12.3"/>
  <polyline class="st1" points="16.5 6.4 17.2 7.1 18.6 8.4"/>
  <line class="st2" x1="19" y1="8.9" x2="19" y2="8.9"/>
  <polyline class="st1" points="19.4 9.3 20.7 10.6 21.4 11.3"/>
  <polyline class="st1" points="15.5 8.9 16.5 8.9 18.4 8.9"/>
  <line class="st2" x1="19" y1="8.9" x2="19" y2="8.9"/>
  <polyline class="st1" points="19.5 8.9 21.4 8.9 22.4 8.9"/>
  <polyline class="st1" points="16.5 11.3 17.2 10.6 18.6 9.3"/>
  <line class="st2" x1="19" y1="8.9" x2="19" y2="8.9"/>
  <polyline class="st1" points="19.4 8.4 20.7 7.1 21.4 6.4"/>
  <circle class="st0" cx="19" cy="8.9" r=".4"/>
</svg>