<svg xmlns="http://www.w3.org/2000/svg" id="Layer_1" viewBox="0 0 24 24"><defs><style>.st1{fill:none;stroke-linecap:round;stroke-linejoin:round;stroke:#000;stroke-width:2px}</style></defs><path d="M16 21v-2c0-2.2-1.8-4-4-4H5c-2.2 0-4 1.8-4 4v2" class="st1"/><circle cx="8.5" cy="7" r="4" class="st1"/><path d="M19 8.9zm1.7-1.7a2.413 2.413 0 0 0-3.4 0 2.413 2.413 0 0 0 0 3.4 2.413 2.413 0 0 0 3.4 0 2.413 2.413 0 0 0 0-3.4ZM19 9.4c-.2 0-.3 0-.4-.2-.1-.1-.2-.3-.2-.4s0-.3.2-.4c.1-.1.3-.2.4-.2s.3 0 .4.2c.1.1.2.2.2.4s0 .3-.2.4c-.1.1-.2.2-.4.2Zm0-.5z" style="fill:none;stroke-miterlimit:10;stroke:#000;stroke-width:2px"/><path d="M19 5.4v2.9m0 1.1v2.9m-2.5-5.9.7.7 1.4 1.3m.8.9 1.3 1.3.7.7m-5.9-2.4h2.9m1.1 0h2.9m-5.9 2.4.7-.7 1.4-1.3m.8-.9 1.3-1.3.7-.7" class="st1"/><circle cx="19" cy="8.9" r=".4" style="stroke:#fff;fill:none;stroke-miterlimit:10"/></svg>