<?xml version="1.0" encoding="UTF-8"?><!DOCTYPE svg PUBLIC "-//W3C//DTD SVG 1.1//EN" "http://www.w3.org/Graphics/SVG/1.1/DTD/svg11.dtd"><svg xmlns="http://www.w3.org/2000/svg" xmlns:xlink="http://www.w3.org/1999/xlink"><defs><style>.st2{stroke:#000;stroke-width:2px;fill:none;stroke-miterlimit:10}</style><style>.st0{fill:none;stroke:#000;stroke-linecap:round;stroke-linejoin:round;stroke-width:2px}</style><style>.st2{fill:none;stroke:#000;stroke-miterlimit:10;stroke-width:2px}</style><style>.st0{fill:none;stroke:#000;stroke-linecap:round;stroke-linejoin:round;stroke-width:2px}</style><style>.st0{fill:#fff;stroke:#000;stroke-linecap:round;stroke-linejoin:round;stroke-width:2px}</style><style>.st0{fill:none;stroke:#000;stroke-linecap:round;stroke-linejoin:round;stroke-width:2px}</style><style>.st0{fill:none;stroke:#000;stroke-linecap:round;stroke-linejoin:round;stroke-width:2px}</style><style>.st0{fill:none;stroke:#000;stroke-linecap:round;stroke-linejoin:round;stroke-width:2px}</style><style>.st0{fill:none;stroke:#000;stroke-linecap:round;stroke-linejoin:round;stroke-width:2px}</style><style>.st0{fill:none;stroke:#000;stroke-linecap:round;stroke-linejoin:round;stroke-width:2px}</style><style>.st0{fill:#fff;stroke:#000;stroke-linecap:round;stroke-linejoin:round;stroke-width:2px}</style><style>.st0{fill:none;stroke:#000;stroke-miterlimit:10}</style><style>.st1{fill:none;stroke-linecap:round;stroke-linejoin:round;stroke:#000;stroke-width:2px}</style><style>.st0{fill:none;stroke:#000;stroke-linecap:round;stroke-linejoin:round;stroke-width:2px}</style><style>.st0{fill:none;stroke:#000;stroke-linecap:round;stroke-linejoin:round;stroke-width:2px}</style><style>.st0{fill:none;stroke:#000;stroke-linecap:round;stroke-linejoin:round;stroke-width:2px}</style><style>.st0{fill:none;stroke:#000;stroke-linecap:round;stroke-linejoin:round;stroke-width:2px}</style><style>.st0{fill:#fff;stroke:#000;stroke-linecap:round;stroke-linejoin:round;stroke-width:2px}</style><style>.st0{fill:none;stroke:#000;stroke-linecap:round;stroke-linejoin:round;stroke-width:2px}</style><style>.st0{fill:none;stroke:#000;stroke-linecap:round;stroke-linejoin:round;stroke-width:2px}</style></defs><symbol id="ai-summary-doc" viewBox="0 0 24 24"><path d="M14 2H6c-1.1 0-2 .9-2 2v16c0 1.1.9 2 2 2h12c1.1 0 2-.9 2-2V8z" class="st2"/><path d="M14 2v6h6" class="st2"/><path d="M16 13H8m8 4H8" style="stroke:#000;stroke-width:2px;fill:none;stroke-linecap:round;stroke-linejoin:round"/><path d="M11.5 7.5C10.1 7 9.4 6.1 9 5c-.1 1.3-1 2-2.5 2.5 1.3.4 2 1.2 2.5 2.5.6-1.2 1.4-2 2.5-2.5" style="fill:#fff;stroke-linecap:round;stroke-linejoin:round;stroke:#000;stroke-width:2px"/></symbol><symbol id="alert-triangle" viewBox="0 0 24 24"><path d="M10.3 3.9 1.8 18c-.6 1-.2 2.2.7 2.7.3.2.6.3 1 .3h16.9c1.1 0 2-.9 2-2s0-.7-.3-1L13.7 3.9c-.6-.9-1.8-1.2-2.7-.7-.3.2-.5.4-.7.7" style="fill:none;stroke:#000;stroke-width:2px;stroke-miterlimit:10"/><path d="M12 7.9v5m0 3.8v1" style="stroke-linecap:round;stroke-linejoin:round;fill:none;stroke:#000;stroke-width:2px"/></symbol><symbol id="arrow-down" viewBox="0 0 24 24"><path d="M12 5v14m7-7-7 7-7-7" style="fill:none;stroke:#000;stroke-linecap:round;stroke-linejoin:round;stroke-width:2px"/></symbol><symbol id="arrow-left" viewBox="0 0 24 24"><path d="M19 12H5m7 7-7-7 7-7" style="fill:none;stroke:#000;stroke-linecap:round;stroke-linejoin:round;stroke-width:2px"/></symbol><symbol id="arrow-right" viewBox="0 0 24 24"><path d="M5 12h14m-7-7 7 7-7 7" style="fill:none;stroke:#000;stroke-linecap:round;stroke-linejoin:round;stroke-width:2px"/></symbol><symbol id="arrow-up" viewBox="0 0 24 24"><path d="M12 19V5m-7 7 7-7 7 7" style="fill:none;stroke:#000;stroke-linecap:round;stroke-linejoin:round;stroke-width:2px"/></symbol><symbol id="check-circle" viewBox="0 0 24 24"><path d="M22 11.1v.9c0 5.5-4.5 10-10 10S2 17.5 2 12 6.5 2 12 2c1.4 0 2.8.3 4.1.9" class="st0"/><path d="M22 4 12 14l-3-3" class="st0"/></symbol><symbol id="chevron-down" viewBox="0 0 24 24"><path d="m6 9 6 6 6-6" style="fill:none;stroke:#000;stroke-linecap:round;stroke-linejoin:round;stroke-width:2px"/></symbol><symbol id="chevron-left" viewBox="0 0 24 24"><path d="m15 18-6-6 6-6" style="fill:#fff;stroke:#000;stroke-linecap:round;stroke-linejoin:round;stroke-width:2px"/></symbol><symbol id="chevron-right" viewBox="0 0 24 24"><path d="m9 18 6-6-6-6" style="fill:none;stroke:#000;stroke-linecap:round;stroke-linejoin:round;stroke-width:2px"/></symbol><symbol id="chevron-up" viewBox="0 0 24 24"><path d="m18 15-6-6-6 6" style="fill:none;stroke:#000;stroke-linecap:round;stroke-linejoin:round;stroke-width:2px"/></symbol><symbol id="client-business" viewBox="0 0 24 24"><path d="M16 21v-2c0-2.2-1.8-4-4-4H5c-2.2 0-4 1.8-4 4v2" style="stroke-linecap:round;fill:none;stroke:#000;stroke-miterlimit:10;stroke-width:2px"/><circle cx="8.5" cy="7" r="4" class="st2"/><rect width="7.9" height="6.5" x="15.1" y="5.5" class="st2" rx="1" ry="1"/><path d="M17.3 5.4v-2c0-.6.8-1 1.8-1s1.8.4 1.8 1v2" class="st2"/><path d="M19 7v3.6m-.9-.7h1.4c.3 0 .5-.3.5-.6s-.2-.6-.5-.6h-.9c-.3 0-.5-.3-.5-.6s.2-.6.5-.6H20" style="stroke-linecap:round;fill:none;stroke:#000;stroke-linejoin:round;stroke-width:.5px"/></symbol><symbol id="client-finance" viewBox="0 0 24 24"><path d="M16 21v-2c0-2.2-1.8-4-4-4H5c-2.2 0-4 1.8-4 4v2" class="st0"/><circle cx="8.5" cy="7" r="4" class="st0"/><path d="M20.1 5.1v9.4m-2.4-1.8h3.6c.7 0 1.2-.7 1.2-1.5s-.5-1.5-1.2-1.5h-2.4c-.7 0-1.2-.7-1.2-1.5s.5-1.5 1.2-1.5h3.6" class="st0"/></symbol><symbol id="client-tag" viewBox="0 0 24 24"><path d="M16 21v-2c0-2.2-1.8-4-4-4H5c-2.2 0-4 1.8-4 4v2" class="st0"/><circle cx="8.5" cy="7" r="4" class="st0"/><path d="m22.7 13.8-4.6-4.6c-.1-.1-.3-.2-.5-.2h-2.3c-.4 0-.7.3-.7.7V12c0 .2 0 .4.2.5l4.6 4.6c.3.3.7.3 1 0l2.3-2.3c.3-.3.3-.7 0-1" class="st0"/></symbol><symbol id="inbox" viewBox="0 0 24 24"><path d="M5.4 5.1 2 12v6c0 1.1.9 2 2 2h16c1.1 0 2-.9 2-2v-6l-3.5-6.9c-.3-.7-1-1.1-1.8-1.1H7.2c-.8 0-1.5.4-1.8 1.1" class="st0"/><path d="M22 12h-6l-2 3h-4l-2-3H2" class="st0"/></symbol><symbol id="info" viewBox="0 0 24 24"><circle cx="12" cy="12" r="10" class="st0"/><path d="M12 16v-4m0-4" class="st0"/></symbol><symbol id="lock" viewBox="0 0 24 24"><rect width="18" height="11" x="3" y="11" class="st0" rx="2" ry="2"/><path d="M7 11V7c0-2.8 2.2-5 5-5s5 2.2 5 5v4" class="st0"/></symbol><symbol id="log-in" viewBox="0 0 24 24"><path d="M12 20h8.7V3.4H12" class="st0"/><path d="M3 11.7h14m-5-5 5 5-5 5" class="st0"/></symbol><symbol id="log-out" viewBox="0 0 24 24"><path d="M11.7 3.4H4.1c-.6 0-1.1.5-1.1 1.1v14.4c0 .6.5 1.1 1.1 1.1h7.6m-3.2-8.3h14m-5-5 5 5-5 5" style="fill:none;stroke:#000;stroke-linecap:round;stroke-linejoin:round;stroke-width:2px"/></symbol><symbol id="plus" viewBox="0 0 24 24"><path d="M12 5v14m-7-7h14" style="fill:none;stroke:#000;stroke-linecap:round;stroke-linejoin:round;stroke-width:2px"/></symbol><symbol id="search" viewBox="0 0 24 24"><circle cx="11" cy="11" r="8" class="st0"/><path d="m21 21-4.4-4.4" class="st0"/></symbol><symbol id="settings" viewBox="0 0 24 24"><path d="M20.3 13v-2l2-1.6c.2-.1.2-.4.1-.6l-1.9-3.3c-.2-.4-.8-.6-1.2-.4l-2.4 1c-.5-.4-1-.7-1.6-.9l-.4-2.5c0-.5-.5-.9-1-.9h-3.8c-.5 0-.9.4-1 .9l-.4 2.5c-.6.2-1.1.6-1.6.9l-2.4-1c-.5-.2-1 0-1.2.4L1.6 8.8c-.1.2 0 .5.1.6l2 1.6v2l-2 1.6c-.2.1-.2.4-.1.6l1.9 3.3c.2.4.8.6 1.2.4l2.4-1c.5.4 1 .7 1.6.9l.4 2.5c0 .5.5.9 1 .9h3.8c.5 0 .9-.4 1-.9l.4-2.5c.6-.2 1.1-.6 1.6-.9l2.4 1c.5.2 1 0 1.2-.4l1.9-3.3c.1-.2 0-.5-.1-.6zm-4.8-.8c-.1 1.8-1.7 3.3-3.5 3.3S8.6 14 8.5 12.2v-.4c.1-1.8 1.7-3.3 3.5-3.3s3.4 1.5 3.5 3.3z" style="fill:none;stroke:#000;stroke-miterlimit:10;stroke-width:2px"/></symbol><symbol id="sliders" viewBox="0 0 24 24"><path d="M3.2 6.9h17.1M3.2 12h17.1M3.2 17.1h17.1M6.2 4.3v4.9m11.2.4v4.8m-6.9.3v4.9" style="fill:#fff;stroke:#000;stroke-linecap:round;stroke-linejoin:round;stroke-width:2px"/></symbol><symbol id="trash" viewBox="0 0 24 24"><path d="M3 6h18m-2 0v14c0 1.1-.9 2-2 2H7c-1.1 0-2-.9-2-2V6m3 0V4c0-1.1.9-2 2-2h4c1.1 0 2 .9 2 2v2" style="fill:#fff;stroke:#000;stroke-linecap:round;stroke-linejoin:round;stroke-width:2px"/></symbol><symbol id="user-check" viewBox="0 0 24 24"><path d="M16 21v-2c0-2.2-1.8-4-4-4H5c-2.2 0-4 1.8-4 4v2" class="st0"/><circle cx="8.5" cy="7" r="4" class="st0"/><path d="m17 11 2 2 4-4" class="st0"/></symbol><symbol id="user-circle" viewBox="0 0 24 24"><circle cx="12" cy="8.7" r="4" class="st0"/><circle cx="12" cy="12" r="10" class="st0"/><path d="M19.5 18.6c-.7-1.3-2-2.2-3.5-2.2H8c-1.5 0-2.9.9-3.5 2.2" class="st0"/></symbol><symbol id="user-cog" viewBox="0 0 24 24"><path d="M16 21v-2c0-2.2-1.8-4-4-4H5c-2.2 0-4 1.8-4 4v2" class="st1"/><circle cx="8.5" cy="7" r="4" class="st1"/><path d="M19 8.9zm1.7-1.7a2.413 2.413 0 0 0-3.4 0 2.413 2.413 0 0 0 0 3.4 2.413 2.413 0 0 0 3.4 0 2.413 2.413 0 0 0 0-3.4ZM19 9.4c-.2 0-.3 0-.4-.2-.1-.1-.2-.3-.2-.4s0-.3.2-.4c.1-.1.3-.2.4-.2s.3 0 .4.2c.1.1.2.2.2.4s0 .3-.2.4c-.1.1-.2.2-.4.2Zm0-.5z" style="fill:none;stroke-miterlimit:10;stroke:#000;stroke-width:2px"/><path d="M19 5.4v2.9m0 1.1v2.9m-2.5-5.9.7.7 1.4 1.3m.8.9 1.3 1.3.7.7m-5.9-2.4h2.9m1.1 0h2.9m-5.9 2.4.7-.7 1.4-1.3m.8-.9 1.3-1.3.7-.7" class="st1"/><circle cx="19" cy="8.9" r=".4" style="stroke:#fff;fill:none;stroke-miterlimit:10"/></symbol><symbol id="user-lock" viewBox="0 0 24 24"><path d="M16 21v-2c0-2.2-1.8-4-4-4H5c-2.2 0-4 1.8-4 4v2" class="st0"/><circle cx="8.5" cy="7" r="4" class="st0"/><rect width="6.8" height="6.4" x="16.2" y="6.6" class="st0" rx="1" ry="1"/><path d="M21.6 6.6v-2c0-.6-.4-1-1-1h-2c-.6 0-1 .4-1 1v2" class="st0"/><circle cx="19.6" cy="9.8" r=".5" class="st0"/></symbol><symbol id="user-minus" viewBox="0 0 24 24"><path d="M16 21v-2c0-2.2-1.8-4-4-4H5c-2.2 0-4 1.8-4 4v2" class="st0"/><circle cx="8.5" cy="7" r="4" class="st0"/><path d="M23 11h-6" class="st0"/></symbol><symbol id="user-plus" viewBox="0 0 24 24"><path d="M16 21v-2c0-2.2-1.8-4-4-4H5c-2.2 0-4 1.8-4 4v2" class="st0"/><circle cx="8.5" cy="7" r="4" class="st0"/><path d="M20 8v6m3-3h-6" class="st0"/></symbol><symbol id="user-x" viewBox="0 0 24 24"><path d="M16 21v-2c0-2.2-1.8-4-4-4H5c-2.2 0-4 1.8-4 4v2" class="st0"/><circle cx="8.5" cy="7" r="4" class="st0"/><path d="m18 8 5 5m0-5-5 5" class="st0"/></symbol><symbol id="user" viewBox="0 0 24 24"><path d="M20 21v-2c0-2.2-1.8-4-4-4H9c-2.2 0-4 1.8-4 4v2" class="st0"/><circle cx="12.5" cy="7" r="4" class="st0"/></symbol><symbol id="users" viewBox="0 0 24 24"><path d="M17 21v-2c0-2.2-1.8-4-4-4H5c-2.2 0-4 1.8-4 4v2" class="st0"/><circle cx="9" cy="7" r="4" class="st0"/><path d="M23 21v-2c0-1.8-1.2-3.4-3-3.9m-4-12c2.1.5 3.4 2.7 2.9 4.9-.4 1.4-1.5 2.5-2.9 2.9" class="st0"/></symbol><symbol id="x-circle" viewBox="0 0 24 24"><circle cx="12" cy="12" r="10" class="st0"/><path d="m15 9-6 6m0-6 6 6" class="st0"/></symbol><symbol id="ai-summary-doc-filled" viewBox="0 0 24 24"><path d="M14 2H6c-1.1 0-1.99.9-1.99 2L4 20c0 1.1.89 2 1.99 2H18c1.1 0 2-.9 2-2V8zm2 16H8v-2h8zm0-4H8v-2h8zm-3-5V3.5L18.5 9z"/></symbol><symbol id="alert-triangle-filled" viewBox="0 0 24 24"><path d="M3.5 21h17c1.1 0 1.8-1.2 1.2-2.2L13.2 4.1c-.6-1-1.9-1-2.5 0L2.2 18.8c-.6 1 .1 2.2 1.2 2.2Zm8.5-3c-.6 0-1-.4-1-1s.4-1 1-1 1 .4 1 1-.4 1-1 1m0-4c-.6 0-1-.4-1-1v-2c0-.6.4-1 1-1s1 .4 1 1v2c0 .6-.4 1-1 1"/></symbol><symbol id="arrow-down-filled" viewBox="0 0 24 24"><path d="m2.6 12 2.8-2.8 4.6 4.6V3h4v10.8l4.6-4.6 2.8 2.8-9.4 9.4z"/></symbol><symbol id="arrow-left-filled" viewBox="0 0 24 24"><path d="M2.6 12 12 2.6l2.8 2.8-4.6 4.6H21v4H10.2l4.6 4.6-2.8 2.8z"/></symbol><symbol id="arrow-right-filled" viewBox="0 0 24 24"><path d="m9.2 18.6 4.6-4.6H3v-4h10.8L9.2 5.4 12 2.6l9.4 9.4-9.4 9.4z"/></symbol><symbol id="arrow-up-filled" viewBox="0 0 24 24"><path d="M10 21V10.2l-4.6 4.6L2.6 12 12 2.6l9.4 9.4-2.8 2.8-4.6-4.6V21z"/></symbol><symbol id="check-circle-filled" viewBox="0 0 24 24"><path d="M12 2C6.48 2 2 6.48 2 12s4.48 10 10 10 10-4.48 10-10S17.52 2 12 2m-2 15-5-5 1.41-1.41L10 14.17l7.59-7.59L19 8z"/></symbol><symbol id="chevron-down-filled" viewBox="0 0 24 24"><path d="m4.6 10 2.8-2.8 4.6 4.6 4.6-4.6 2.8 2.8-7.4 7.4z"/></symbol><symbol id="chevron-left-filled" viewBox="0 0 24 24"><path d="M6.6 12 14 4.6l2.8 2.8-4.6 4.6 4.6 4.6-2.8 2.8z"/></symbol><symbol id="chevron-right-filled" viewBox="0 0 24 24"><path d="m7.2 16.6 4.6-4.6-4.6-4.6L10 4.6l7.4 7.4-7.4 7.4z"/></symbol><symbol id="chevron-up-filled" viewBox="0 0 24 24"><path d="m12 12.2-4.6 4.6L4.6 14 12 6.6l7.4 7.4-2.8 2.8z"/></symbol><symbol id="client-business-filled" viewBox="0 0 24 24"><path d="M12 12c2.21 0 4-1.79 4-4s-1.79-4-4-4-4 1.79-4 4 1.79 4 4 4m0 2c-2.67 0-8 1.34-8 4v2h16v-2c0-2.66-5.33-4-8-4"/><path d="M20 18h-4v-2h-2v2H2v2h12v-2h2v2h6v-4h-2z"/></symbol><symbol id="client-finance-filled" viewBox="0 0 24 24"><path d="M12 2C6.48 2 2 6.48 2 12s4.48 10 10 10 10-4.48 10-10S17.52 2 12 2m0 18c-4.41 0-8-3.59-8-8s3.59-8 8-8 8 3.59 8 8-3.59 8-8 8m.31-8.86c-1.77-.45-2.34-.94-2.34-1.67 0-.84.79-1.43 2.1-1.43 1.38 0 1.9.66 1.94 1.64h1.71c-.05-1.34-.87-2.57-2.49-2.97V5H10.9v1.69c-1.51.32-2.72 1.3-2.72 2.81 0 1.79 1.49 2.69 3.66 3.21 1.95.46 2.34 1.15 2.34 1.87 0 .53-.39 1.39-2.1 1.39-1.6 0-2.23-.72-2.32-1.64H8.04c.1 1.7 1.36 2.66 2.86 2.97V19h2.34v-1.67c1.52-.29 2.72-1.16 2.73-2.77-.01-2.2-1.9-2.96-3.66-3.42"/></symbol><symbol id="client-tag-filled" viewBox="0 0 24 24"><path d="M12 2C6.48 2 2 6.48 2 12s4.48 10 10 10 10-4.48 10-10S17.52 2 12 2m0 18c-4.41 0-8-3.59-8-8s3.59-8 8-8 8 3.59 8 8-3.59 8-8 8m4.5-10.5L12 14l3.79 3.79c.2.2.51.2.71 0L20.29 14c.2-.2.2-.51 0-.71z"/></symbol><symbol id="inbox-filled" viewBox="0 0 24 24"><path d="M19 3H4.99c-1.11 0-1.98.9-1.98 2L3 19c0 1.1.88 2 1.99 2H19c1.1 0 2-.9 2-2V5c0-1.1-.9-2-2-2m0 12h-4c0 1.66-1.35 3-3 3s-3-1.34-3-3H4.99V5H19z"/></symbol><symbol id="info-filled" viewBox="0 0 24 24"><path d="M12 2C6.48 2 2 6.48 2 12s4.48 10 10 10 10-4.48 10-10S17.52 2 12 2m1 15h-2v-6h2zm0-8h-2V7h2z"/></symbol><symbol id="lock-filled" viewBox="0 0 24 24"><path d="M18 8h-1V6c0-2.76-2.24-5-5-5S7 3.24 7 6v2H6c-1.1 0-2 .9-2 2v10c0 1.1.9 2 2 2h12c1.1 0 2-.9 2-2V10c0-1.1-.9-2-2-2m-6 9c-1.1 0-2-.9-2-2s.9-2 2-2 2 .9 2 2-.9 2-2 2m3.1-9H8.9V6c0-1.71 1.39-3.1 3.1-3.1s3.1 1.39 3.1 3.1z"/></symbol><symbol id="log-in-filled" viewBox="0 0 24 24"><path d="M11.5 21.5v-3h8v-13h-8v-3H20c1.4 0 2.5 1.1 2.5 2.5v14c0 1.4-1.1 2.5-2.5 2.5zm-2.6-5.9 2.1-2.1H1.5v-3H11L8.9 8.4 11 6.3l5.7 5.7-5.7 5.7z"/><path d="M11 7 9.6 8.4l2.6 2.6H2v2h10.2l-2.6 2.6L11 17l5-5zm9 12h-8v2h8c1.1 0 2-.9 2-2V5c0-1.1-.9-2-2-2h-8v2h8z"/></symbol><symbol id="log-out-filled" viewBox="0 0 24 24"><path d="M4 21.5c-1.4 0-2.5-1.1-2.5-2.5V5c0-1.4 1.1-2.5 2.5-2.5h8.5v3h-8v13h8v3zm10.9-5.9 2.1-2.1H7.5v-3H17l-2.1-2.1L17 6.3l5.7 5.7-5.7 5.7z"/></symbol><symbol id="plus-filled" viewBox="0 0 24 24"><path d="M19 13h-6v6h-2v-6H5v-2h6V5h2v6h6z"/></symbol><symbol id="search-filled" viewBox="0 0 24 24"><path d="M15.5 14h-.79l-.28-.27A6.47 6.47 0 0 0 16 9.5 6.5 6.5 0 1 0 9.5 16c1.61 0 3.09-.59 4.23-1.57l.27.28v.79l5 4.99L20.49 19zm-6 0C7.01 14 5 11.99 5 9.5S7.01 5 9.5 5 14 7.01 14 9.5 11.99 14 9.5 14"/></symbol><symbol id="settings-filled" viewBox="0 0 24 24"><path d="M20.3 13v-2l2-1.6c.2-.1.2-.4.1-.6l-1.9-3.3c-.2-.4-.8-.6-1.2-.4l-2.4 1c-.5-.4-1-.7-1.6-.9l-.4-2.5c0-.5-.5-.9-1-.9h-3.8c-.5 0-.9.4-1 .9l-.4 2.5c-.6.2-1.1.6-1.6.9l-2.4-1c-.5-.2-1 0-1.2.4L1.6 8.8c-.1.2 0 .5.1.6l2 1.6v2l-2 1.6c-.2.1-.2.4-.1.6l1.9 3.3c.2.4.8.6 1.2.4l2.4-1c.5.4 1 .7 1.6.9l.4 2.5c0 .5.5.9 1 .9h3.8c.5 0 .9-.4 1-.9l.4-2.5c.6-.2 1.1-.6 1.6-.9l2.4 1c.5.2 1 0 1.2-.4l1.9-3.3c.1-.2 0-.5-.1-.6zm-4.8-.8c-.1 1.8-1.7 3.3-3.5 3.3S8.6 14 8.5 12.2v-.4c.1-1.8 1.7-3.3 3.5-3.3s3.4 1.5 3.5 3.3z"/></symbol><symbol id="sliders-filled" viewBox="0 0 24 24"><path d="M20.9 12c0 .5-.5 1-1 1h-2v1.3c0 .5-.4 1-1 1s-1-.5-1-1V13H4.1c-.5 0-1-.5-1-1s.5-1 1-1h11.7V9.7c0-.5.4-1 1-1s1 .5 1 1V11h2c.5 0 1 .5 1 1ZM3.1 5.8c0-.5.5-1 1-1h2.2V3.5c0-.6.4-1 1-1s1 .4 1 1v1.3h11.5c.5 0 1 .5 1 1s-.5 1-1 1H8.3v1.3c0 .5-.5 1-1 1s-1-.5-1-1V6.8H4.1c-.5 0-1-.4-1-1m17.8 12.4c0 .6-.5 1-1 1h-8.1v1.3c0 .6-.4 1-1 1s-1-.4-1-1v-1.3H4.2c-.5 0-1-.4-1-1s.5-1 1-1h5.6v-1.3c0-.5.4-1 1-1s1 .5 1 1v1.3h8.1c.5 0 1 .4 1 1"/></symbol><symbol id="trash-filled" viewBox="0 0 24 24"><path d="M6 7v12c0 1.1.9 2 2 2h8c1.1 0 2-.9 2-2V7zm4.5 10.5c0 .5-.4 1-1 1s-1-.4-1-1V9.7c0-.5.4-1 1-1s1 .4 1 1zm4.7 0c0 .5-.4 1-1 1s-1-.4-1-1V9.7c0-.5.4-1 1-1s1 .4 1 1zM15.5 4l-1-1h-5l-1 1H5v2h14V4z"/></symbol><symbol id="user-check-filled" viewBox="0 0 24 24"><path d="M12 12c2.21 0 4-1.79 4-4s-1.79-4-4-4-4 1.79-4 4 1.79 4 4 4m0 2c-2.67 0-8 1.34-8 4v2h16v-2c0-2.66-5.33-4-8-4m-1.55 3.55L8.9 15.9l-1.4 1.4 2.95 2.95L15.7 15l-1.4-1.4z"/></symbol><symbol id="user-circle-filled" viewBox="0 0 24 24"><path d="M12 2C6.48 2 2 6.48 2 12s4.48 10 10 10 10-4.48 10-10S17.52 2 12 2m0 3c1.66 0 3 1.34 3 3s-1.34 3-3 3-3-1.34-3-3 1.34-3 3-3m0 14.2a7.2 7.2 0 0 1-6-3.22c.03-1.99 4-3.08 6-3.08 1.99 0 5.97 1.09 6 3.08a7.2 7.2 0 0 1-6 3.22"/></symbol><symbol id="user-cog-filled" viewBox="0 0 24 24"><path d="M12 12c2.21 0 4-1.79 4-4s-1.79-4-4-4-4 1.79-4 4 1.79 4 4 4m0 2c-2.67 0-8 1.34-8 4v2h16v-2c0-2.66-5.33-4-8-4m8-2h-2V9h2V7h-2V5h2V3h2v2h2v2h-2v2h2v2h-2v1zv-2z"/></symbol><symbol id="user-filled" viewBox="0 0 24 24"><path d="M12 12c2.21 0 4-1.79 4-4s-1.79-4-4-4-4 1.79-4 4 1.79 4 4 4m0 2c-2.67 0-8 1.34-8 4v2h16v-2c0-2.66-5.33-4-8-4"/></symbol><symbol id="user-lock-filled" viewBox="0 0 24 24"><path d="M12 12c2.21 0 4-1.79 4-4s-1.79-4-4-4-4 1.79-4 4 1.79 4 4 4m0 2c-2.67 0-8 1.34-8 4v2h16v-2c0-2.66-5.33-4-8-4m6-2h-1V9c0-.55-.45-1-1-1s-1 .45-1 1v3h-1v4h4z"/></symbol><symbol id="user-minus-filled" viewBox="0 0 24 24"><path d="M12 12c2.21 0 4-1.79 4-4s-1.79-4-4-4-4 1.79-4 4 1.79 4 4 4m0 2c-2.67 0-8 1.34-8 4v2h16v-2c0-2.66-5.33-4-8-4m2 2h6v2h-6z"/></symbol><symbol id="user-plus-filled" viewBox="0 0 24 24"><path d="M12 12c2.21 0 4-1.79 4-4s-1.79-4-4-4-4 1.79-4 4 1.79 4 4 4m0 2c-2.67 0-8 1.34-8 4v2h16v-2c0-2.66-5.33-4-8-4m3 3h-3v3h-2v-3H7v-2h3v-3h2v3h3z"/></symbol><symbol id="user-x-filled" viewBox="0 0 24 24"><path d="M12 12c2.21 0 4-1.79 4-4s-1.79-4-4-4-4 1.79-4 4 1.79 4 4 4m0 2c-2.67 0-8 1.34-8 4v2h16v-2c0-2.66-5.33-4-8-4m2.59 2h-1.42l-2.58 2.59L12 20l2.59-2.58L17.17 20l1.41-1.41L16 16l2.58-2.59L17.17 12l-2.58 2.59z"/></symbol><symbol id="users-filled" viewBox="0 0 24 24"><path d="M16.5 13c-1.2 0-3.07.34-4.5 1-1.23-.91-2.75-1.5-4.5-1.5C4.23 12.5 0 14.63 0 17v2h24v-2c0-2.37-4.23-4.5-7.5-4.5z"/><circle cx="7.5" cy="7.5" r="3.5"/><circle cx="16.5" cy="7.5" r="3.5"/></symbol><symbol id="x-circle-filled" viewBox="0 0 24 24"><path d="M12 2C6.47 2 2 6.47 2 12s4.47 10 10 10 10-4.47 10-10S17.53 2 12 2m5 13.59L15.59 17 12 13.41 8.41 17 7 15.59 10.59 12 7 8.41 8.41 7 12 10.59 15.59 7 17 8.41 13.41 12z"/></symbol></svg>