<svg xmlns="http://www.w3.org/2000/svg">
    <symbol id="user" viewBox="0 0 24 24">
        <path
            fill="currentColor"
            d="M12 12c2.21 0 4-1.79 4-4s-1.79-4-4-4-4 1.79-4 4 1.79 4 4 4zm0 2c-2.67 0-8 1.34-8 4v2h16v-2c0-2.66-5.33-4-8-4z" />
    </symbol>

    <symbol id="settings" viewBox="0 0 24 24">
        <path
            fill="currentColor"
            d="M19.14 12.94c.04-.3.06-.61.06-.94 0-.32-.02-.64-.06-.94l2.03-1.58c.18-.14.23-.41.12-.61l-1.92-3.32c-.12-.22-.37-.29-.59-.22l-2.39.96c-.5-.38-1.03-.7-1.62-.94l-.36-2.54c-.04-.24-.24-.41-.48-.41h-3.84c-.24 0-.43.17-.47.41l-.36 2.54c-.59.24-1.13.56-1.62.94l-2.39-.96c-.22-.08-.47 0-.59.22l-1.92 3.32c-.12.22-.07.47.12-.61l2.03 1.58c-.04.3-.06.61-.06.94s.02.64.06.94l-2.03 1.58c-.18.14-.23.41-.12.61l1.92 3.32c.12.22.37.29.59.22l2.39-.96c.5.38 1.03.7 1.62.94l.36 2.54c.05.24.24.41.48.41h3.84c.24 0 .43-.17.47-.41l.36-2.54c.59-.24 1.13-.56 1.62-.94l2.39.96c.22.08.47 0 .59-.22l1.92-3.32c.12-.22.07-.47-.12-.61l-2.03-1.58zM12 15.6c-1.98 0-3.6-1.62-3.6-3.6s1.62-3.6 3.6-3.6 3.6 1.62 3.6 3.6-1.62 3.6-3.6 3.6z" />
    </symbol>

    <symbol id="sliders" viewBox="0 0 24 24">
        <path
            fill="currentColor"
            d="M10 21H7.83l1.99-1.99.01-.01L6 15l-3.83 3.83-.01.01L10 21zM21 9l-3.83-3.83-.01-.01L15 3 6 12l2.16 2.18L21 9zm-6.83 5.17l-2-2 1.41-1.42 2 2-1.41 1.42z" />
    </symbol>

    <symbol id="log-in" viewBox="0 0 24 24">
        <path
            fill="currentColor"
            d="M11 7L9.6 8.4l2.6 2.6H2v2h10.2l-2.6 2.6L11 17l5-5-5-5zm9 12h-8v2h8c1.1 0 2-.9 2-2V5c0-1.1-.9-2-2-2h-8v2h8v14z" />
    </symbol>

    <symbol id="log-out" viewBox="0 0 24 24">
        <path
            fill="currentColor"
            d="M17 7l-1.41 1.41L18.17 11H8v2h10.17l-2.58 2.58L17 17l5-5zM4 5h8V3H4c-1.1 0-2 .9-2 2v14c0 1.1.9 2 2 2h8v-2H4V5z" />
    </symbol>

    <symbol
        id="check-circle"
        viewBox="0 0 24 24"
        fill="none"
        stroke="currentColor"
        stroke-width="2"
        stroke-linecap="round"
        stroke-linejoin="round">
        <path d="M22 11.08V12a10 10 0 1 1-5.93-9.14"></path>
        <polyline points="22 4 12 14.01 9 11.01"></polyline>
    </symbol>

    <symbol
        id="alert-triangle"
        viewBox="0 0 24 24"
        fill="none"
        stroke="currentColor"
        stroke-width="2"
        stroke-linecap="round"
        stroke-linejoin="round">
        <path d="M10.29 3.86L1.82 18a2 2 0 0 0 1.71 3h16.94a2 2 0 0 0 1.71-3L13.71 3.86a2 2 0 0 0-3.42 0z"></path>
        <line x1="12" y1="9" x2="12" y2="13"></line>
        <line x1="12" y1="17" x2="12.01" y2="17"></line>
    </symbol>

    <symbol
        id="x-circle"
        viewBox="0 0 24 24"
        fill="none"
        stroke="currentColor"
        stroke-width="2"
        stroke-linecap="round"
        stroke-linejoin="round">
        <circle cx="12" cy="12" r="10"></circle>
        <line x1="15" y1="9" x2="9" y2="15"></line>
        <line x1="9" y1="9" x2="15" y2="15"></line>
    </symbol>

    <symbol
        id="info"
        viewBox="0 0 24 24"
        fill="none"
        stroke="currentColor"
        stroke-width="2"
        stroke-linecap="round"
        stroke-linejoin="round">
        <circle cx="12" cy="12" r="10"></circle>
        <line x1="12" y1="16" x2="12" y2="12"></line>
        <line x1="12" y1="8" x2="12.01" y2="8"></line>
    </symbol>

    <symbol
        id="trash"
        viewBox="0 0 24 24"
        fill="none"
        stroke="currentColor"
        stroke-width="2"
        stroke-linecap="round"
        stroke-linejoin="round">
        <polyline points="3 6 5 6 21 6"></polyline>
        <path d="M19 6v14a2 2 0 0 1-2 2H7a2 2 0 0 1-2-2V6m3 0V4a2 2 0 0 1 2-2h4a2 2 0 0 1 2 2v2"></path>
    </symbol>

    <symbol
        id="trash-2"
        viewBox="0 0 24 24"
        fill="none"
        stroke="currentColor"
        stroke-width="2"
        stroke-linecap="round"
        stroke-linejoin="round">
        <polyline points="3 6 5 6 21 6"></polyline>
        <path d="M19 6v14a2 2 0 0 1-2 2H7a2 2 0 0 1-2-2V6m3 0V4a2 2 0 0 1 2-2h4a2 2 0 0 1 2 2v2"></path>
        <line x1="10" y1="11" x2="10" y2="17"></line>
        <line x1="14" y1="11" x2="14" y2="17"></line>
    </symbol>

    <symbol
        id="inbox"
        viewBox="0 0 24 24"
        fill="none"
        stroke="currentColor"
        stroke-width="2"
        stroke-linecap="round"
        stroke-linejoin="round">
        <polyline points="22 12 16 12 14 15 10 15 8 12 2 12"></polyline>
        <path
            d="M5.45 5.11L2 12v6a2 2 0 0 0 2 2h16a2 2 0 0 0 2-2v-6l-3.45-6.89A2 2 0 0 0 16.76 4H7.24a2 2 0 0 0-1.79 1.11z"></path>
    </symbol>
</svg>
