<?xml version="1.0" encoding="UTF-8"?><!DOCTYPE svg PUBLIC "-//W3C//DTD SVG 1.1//EN" "http://www.w3.org/Graphics/SVG/1.1/DTD/svg11.dtd"><svg xmlns="http://www.w3.org/2000/svg" xmlns:xlink="http://www.w3.org/1999/xlink"><defs><style>.st0{fill:none;stroke:#000;stroke-linecap:round;stroke-linejoin:round;stroke-width:2px}</style><style>.st0{fill:none;stroke:#000;stroke-linecap:round;stroke-linejoin:round;stroke-width:2px}</style><style>.st0{fill:none;stroke:#000;stroke-linecap:round;stroke-linejoin:round;stroke-width:2px}</style><style>.st0{fill:none;stroke:#000;stroke-linecap:round;stroke-linejoin:round;stroke-width:2px}</style><style>.st0{fill:none;stroke:#000;stroke-linecap:round;stroke-linejoin:round;stroke-width:2px}</style><clipPath id="clippath"><circle cx="12" cy="12" r="10"/></clipPath><style>.st1{fill:none;stroke:#000;stroke-linecap:round;stroke-linejoin:round;stroke-width:2px}</style><style>.st0,.st1{stroke-width:2px;fill:none;stroke:#000;stroke-linecap:round;stroke-linejoin:round}.st1{stroke-width:1.8px}</style><style>.st0{fill:none;stroke:#000;stroke-linecap:round;stroke-linejoin:round;stroke-width:2px}</style></defs><symbol id="ai-summary-doc" viewBox="0 0 24 24"><path d="M14 2H6c-1.1 0-2 .9-2 2v16c0 1.1.9 2 2 2h12c1.1 0 2-.9 2-2V8z" class="st0"/><path d="M14 2v6h6m-4 5H8m8 4H8m3-10c-1.1-.4-1.7-1.1-2-2-.1 1-.8 1.6-2 2 1 .3 1.6 1 2 2 .5-1 1.1-1.6 2-2" class="st0"/></symbol><symbol id="alert-triangle"><path d="M10.29 3.86 1.82 18a2 2 0 0 0 1.71 3h16.94a2 2 0 0 0 1.71-3L13.71 3.86a2 2 0 0 0-3.42 0M12 9v4m0 4h.01"/></symbol><symbol id="arrow-down"><path d="M12 5v14m7-7-7 7-7-7"/></symbol><symbol id="arrow-left"><path d="M19 12H5m7 7-7-7 7-7"/></symbol><symbol id="arrow-right"><path d="M5 12h14m-7-7 7 7-7 7"/></symbol><symbol id="arrow-up"><path d="M12 19V5m-7 7 7-7 7 7"/></symbol><symbol id="check-circle"><path d="M22 11.08V12a10 10 0 1 1-5.93-9.14"/><path d="M22 4 12 14.01l-3-3"/></symbol><symbol id="chevron-down"><path d="m6 9 6 6 6-6"/></symbol><symbol id="chevron-left"><path d="m15 18-6-6 6-6"/></symbol><symbol id="chevron-right"><path d="m9 18 6-6-6-6"/></symbol><symbol id="chevron-up" viewBox="0 0 24 24"><path d="m18 15-6-6-6 6"/></symbol><symbol id="client-business" viewBox="0 0 24 24"><path d="M16 21v-2c0-2.2-1.8-4-4-4H5c-2.2 0-4 1.8-4 4v2" class="st0"/><circle cx="8.5" cy="7" r="4" class="st0"/><rect width="7.9" height="6.8" x="15" y="6.6" class="st0" rx="1" ry="1"/><path d="M17.9 6.6v-2c0-.6.5-1 1.1-1s1.1.4 1.1 1v2" class="st0"/><path d="m21.2 8.7-1.2.2c0-.2-.1-.3-.2-.3l-.2-.2v1c.7.2 1.1.4 1.3.6.3.3.4.6.4 1s0 .5-.2.7c-.1.2-.2.4-.4.5s-.3.2-.5.3c-.2 0-.4 0-.7.1v.6H19v-.6c-.3 0-.6 0-.8-.2-.2 0-.4-.2-.5-.3s-.3-.3-.3-.4c0-.2-.1-.3-.2-.6l1.3-.2c0 .2 0 .4.2.5l.3.3v-1.2c-.4-.1-.8-.2-.9-.3-.2 0-.3-.2-.5-.4s-.2-.4-.2-.7.1-.7.4-1 .7-.4 1.2-.4v-.3h.5v.3c.5 0 .9.1 1.1.4.3.2.4.5.5.8ZM19 8.4c-.1 0-.2.1-.3.2s0 .1 0 .2v.3s.2.1.3.2zm.5 3.3c.2 0 .3-.1.4-.2s.1-.2.1-.3 0-.2-.1-.3c0 0-.2-.2-.4-.2v1.1Z"/></symbol><symbol id="client-finance" viewBox="0 0 24 24"><path d="M16 21v-2c0-2.2-1.8-4-4-4H5c-2.2 0-4 1.8-4 4v2" class="st0"/><circle cx="8.5" cy="7" r="4" class="st0"/><path d="M19 6.3v9.4m-2.4-1.8h3.6c.7 0 1.2-.7 1.2-1.5h0c0-.8-.5-1.5-1.2-1.5h-2.4c-.7 0-1.2-.7-1.2-1.5h0c0-.8.5-1.5 1.2-1.5h3.6" class="st0"/></symbol><symbol id="client-tag" viewBox="0 0 24 24"><path d="M16 21v-2c0-2.2-1.8-4-4-4H5c-2.2 0-4 1.8-4 4v2" class="st0"/><circle cx="8.5" cy="7" r="4" class="st0"/><path d="m22.9 14.5-4.6-4.6c-.1-.1-.3-.2-.5-.2h-2.3c-.4 0-.7.3-.7.7v2.3c0 .2 0 .4.2.5l4.6 4.6c.3.3.7.3 1 0l2.3-2.3c.3-.3.3-.7 0-1" class="st0"/></symbol><symbol id="inbox"><path d="M22 12h-6l-2 3h-4l-2-3H2"/><path d="M5.45 5.11 2 12v6a2 2 0 0 0 2 2h16a2 2 0 0 0 2-2v-6l-3.45-6.89A2 2 0 0 0 16.76 4H7.24a2 2 0 0 0-1.79 1.11"/></symbol><symbol id="info"><circle cx="12" cy="12" r="10"/><path d="M12 16v-4m0-4h.01"/></symbol><symbol id="lock"><rect width="18" height="11" x="3" y="11" rx="2" ry="2"/><path d="M7 11V7a5 5 0 0 1 10 0v4"/></symbol><symbol id="log-in" viewBox="0 0 24 24"><path d="M12 20h8.7V3.4H12" class="st0"/><path d="M3 11.7h14m-5-5 5 5-5 5" class="st0"/></symbol><symbol id="log-out" viewBox="0 0 24 24"><path d="M11.7 3.4H3V20h8.7m-3.2-8.3h14m-5-5 5 5-5 5"/></symbol><symbol id="plus"><path d="M12 5v14m-7-7h14"/></symbol><symbol id="search"><circle cx="11" cy="11" r="8"/><path d="m21 21-4.35-4.35"/></symbol><symbol id="settings" viewBox="0 0 24 24"><path fill="currentColor" d="M19.14 12.94c.04-.3.06-.61.06-.94 0-.32-.02-.64-.06-.94l2.03-1.58a.49.49 0 0 0 .12-.61l-1.92-3.32a.49.49 0 0 0-.59-.22l-2.39.96c-.5-.38-1.03-.7-1.62-.94l-.36-2.54a.484.484 0 0 0-.48-.41h-3.84c-.24 0-.43.17-.47.41l-.36 2.54c-.59.24-1.13.56-1.62.94l-2.39-.96c-.22-.08-.47 0-.59.22L2.74 8.87c-.12.22-.07.47.12-.61l2.03 1.58c-.04.3-.06.61-.06.94s.02.64.06.94L2.86 13.3a.49.49 0 0 0-.12.61l1.92 3.32c.12.22.37.29.59.22l2.39-.96c.5.38 1.03.7 1.62.94l.36 2.54c.05.24.24.41.48.41h3.84c.24 0 .43-.17.47-.41l.36-2.54c.59-.24 1.13-.56 1.62-.94l2.39.96c.22.08.47 0 .59-.22l1.92-3.32c.12-.22.07-.47-.12-.61l-2.03-1.58zM12 15.6c-1.98 0-3.6-1.62-3.6-3.6s1.62-3.6 3.6-3.6 3.6 1.62 3.6 3.6-1.62 3.6-3.6 3.6"/></symbol><symbol id="sliders" viewBox="0 0 24 24"><path d="M3.2 6.9h17.1M3.2 12h17.1M3.2 17.1h17.1M6.2 4.3v4.9m11.2.4v4.8m-6.9.3v4.9"/></symbol><symbol id="trash"><path d="M3 6h18m-2 0v14a2 2 0 0 1-2 2H7a2 2 0 0 1-2-2V6m3 0V4a2 2 0 0 1 2-2h4a2 2 0 0 1 2 2v2"/></symbol><symbol id="user-check"><path d="M16 21v-2a4 4 0 0 0-4-4H5a4 4 0 0 0-4 4v2"/><circle cx="8.5" cy="7" r="4"/><path d="m17 11 2 2 4-4"/></symbol><symbol id="user-circle" viewBox="0 0 24 24"><circle cx="12" cy="8.7" r="4" class="st1"/><circle cx="12" cy="12" r="10" class="st1"/><path d="M20 22.4v-2c0-2.2-1.8-4-4-4H8c-2.2 0-4 1.8-4 4v2" class="st1"/></symbol><symbol id="user-cog"><path d="M16 21v-2a4 4 0 0 0-4-4H5a4 4 0 0 0-4 4v2"/><circle cx="8.5" cy="7" r="4"/><circle cx="20" cy="11" r="2"/><path d="M22 11h1m-6 0h1m3 1.7.9.5m-3.8-4.4.9.5m2 0 .9-.5m-3.8 4.4.9-.5m1 .3v1m0-6v1"/></symbol><symbol id="user-lock" viewBox="0 0 24 24"><path d="M16 21v-2c0-2.2-1.8-4-4-4H5c-2.2 0-4 1.8-4 4v2" class="st0"/><circle cx="8.5" cy="7" r="4" class="st0"/><rect width="6.8" height="6.4" x="16.2" y="6.6" class="st1" rx="1" ry="1"/><path d="M21.6 6.6v-2c0-.6-.4-1-1-1h-2c-.6 0-1 .4-1 1v2" class="st1"/><circle cx="19.6" cy="10.6" r=".5" class="st0"/></symbol><symbol id="user-minus"><path d="M16 21v-2a4 4 0 0 0-4-4H5a4 4 0 0 0-4 4v2"/><circle cx="8.5" cy="7" r="4"/><path d="M23 11h-6"/></symbol><symbol id="user-plus"><path d="M16 21v-2a4 4 0 0 0-4-4H5a4 4 0 0 0-4 4v2"/><circle cx="8.5" cy="7" r="4"/><path d="M20 8v6m3-3h-6"/></symbol><symbol id="user-x"><path d="M16 21v-2a4 4 0 0 0-4-4H5a4 4 0 0 0-4 4v2"/><circle cx="8.5" cy="7" r="4"/><path d="m18 8 5 5m0-5-5 5"/></symbol><symbol id="user" viewBox="0 0 24 24"><path d="M20 21v-2c0-2.2-1.8-4-4-4H9c-2.2 0-4 1.8-4 4v2" class="st0"/><circle cx="12.5" cy="7" r="4" class="st0"/></symbol><symbol id="users"><path d="M17 21v-2a4 4 0 0 0-4-4H5a4 4 0 0 0-4 4v2"/><circle cx="9" cy="7" r="4"/><path d="M23 21v-2a4 4 0 0 0-3-3.87m-4-12a4 4 0 0 1 0 7.75"/></symbol><symbol id="x-circle"><circle cx="12" cy="12" r="10"/><path d="m15 9-6 6m0-6 6 6"/></symbol><symbol id="ai-summary-doc-filled"><path d="M14 2H6c-1.1 0-1.99.9-1.99 2L4 20c0 1.1.89 2 1.99 2H18c1.1 0 2-.9 2-2V8zm2 16H8v-2h8zm0-4H8v-2h8zm-3-5V3.5L18.5 9z"/></symbol><symbol id="alert-triangle-filled"><path d="M1 21h22L12 2zm12-3h-2v-2h2zm0-4h-2v-4h2z"/></symbol><symbol id="arrow-down-filled" viewBox="0 0 24 24"><path d="m20 12-1.41-1.41L13 16.17V4h-2v12.17l-5.58-5.59L4 12l8 8z"/></symbol><symbol id="arrow-left-filled" viewBox="0 0 24 24"><path d="M20 11H7.83l5.59-5.59L12 4l-8 8 8 8 1.41-1.41L7.83 13H20z"/></symbol><symbol id="arrow-right-filled"><path d="m12 4-1.41 1.41L16.17 11H4v2h12.17l-5.58 5.59L12 20l8-8z"/></symbol><symbol id="arrow-up-filled" viewBox="0 0 24 24"><path d="m4 12 1.41 1.41L11 7.83V20h2V7.83l5.58 5.59L20 12l-8-8z"/></symbol><symbol id="check-circle-filled"><path d="M12 2C6.48 2 2 6.48 2 12s4.48 10 10 10 10-4.48 10-10S17.52 2 12 2m-2 15-5-5 1.41-1.41L10 14.17l7.59-7.59L19 8z"/></symbol><symbol id="chevron-down-filled"><path d="M16.59 8.59 12 13.17 7.41 8.59 6 10l6 6 6-6z"/></symbol><symbol id="chevron-left-filled"><path d="M15.41 7.41 14 6l-6 6 6 6 1.41-1.41L10.83 12z"/></symbol><symbol id="chevron-right-filled"><path d="M10 6 8.59 7.41 13.17 12l-4.58 4.59L10 18l6-6z"/></symbol><symbol id="chevron-up-filled"><path d="m12 8-6 6 1.41 1.41L12 10.83l4.59 4.58L18 14z"/></symbol><symbol id="client-business-filled"><path d="M12 12c2.21 0 4-1.79 4-4s-1.79-4-4-4-4 1.79-4 4 1.79 4 4 4m0 2c-2.67 0-8 1.34-8 4v2h16v-2c0-2.66-5.33-4-8-4"/><path d="M20 18h-4v-2h-2v2H2v2h12v-2h2v2h6v-4h-2z"/></symbol><symbol id="client-finance-filled" viewBox="0 0 24 24"><path d="M12 2C6.48 2 2 6.48 2 12s4.48 10 10 10 10-4.48 10-10S17.52 2 12 2m0 18c-4.41 0-8-3.59-8-8s3.59-8 8-8 8 3.59 8 8-3.59 8-8 8m.31-8.86c-1.77-.45-2.34-.94-2.34-1.67 0-.84.79-1.43 2.1-1.43 1.38 0 1.9.66 1.94 1.64h1.71c-.05-1.34-.87-2.57-2.49-2.97V5H10.9v1.69c-1.51.32-2.72 1.3-2.72 2.81 0 1.79 1.49 2.69 3.66 3.21 1.95.46 2.34 1.15 2.34 1.87 0 .53-.39 1.39-2.1 1.39-1.6 0-2.23-.72-2.32-1.64H8.04c.1 1.7 1.36 2.66 2.86 2.97V19h2.34v-1.67c1.52-.29 2.72-1.16 2.73-2.77-.01-2.2-1.9-2.96-3.66-3.42"/></symbol><symbol id="client-tag-filled" viewBox="0 0 24 24"><path d="M12 2C6.48 2 2 6.48 2 12s4.48 10 10 10 10-4.48 10-10S17.52 2 12 2m0 18c-4.41 0-8-3.59-8-8s3.59-8 8-8 8 3.59 8 8-3.59 8-8 8m4.5-10.5L12 14l3.79 3.79c.2.2.51.2.71 0L20.29 14c.2-.2.2-.51 0-.71z"/></symbol><symbol id="inbox-filled"><path d="M19 3H4.99c-1.11 0-1.98.9-1.98 2L3 19c0 1.1.88 2 1.99 2H19c1.1 0 2-.9 2-2V5c0-1.1-.9-2-2-2m0 12h-4c0 1.66-1.35 3-3 3s-3-1.34-3-3H4.99V5H19z"/></symbol><symbol id="info-filled"><path d="M12 2C6.48 2 2 6.48 2 12s4.48 10 10 10 10-4.48 10-10S17.52 2 12 2m1 15h-2v-6h2zm0-8h-2V7h2z"/></symbol><symbol id="lock-filled"><path d="M18 8h-1V6c0-2.76-2.24-5-5-5S7 3.24 7 6v2H6c-1.1 0-2 .9-2 2v10c0 1.1.9 2 2 2h12c1.1 0 2-.9 2-2V10c0-1.1-.9-2-2-2m-6 9c-1.1 0-2-.9-2-2s.9-2 2-2 2 .9 2 2-.9 2-2 2m3.1-9H8.9V6c0-1.71 1.39-3.1 3.1-3.1s3.1 1.39 3.1 3.1z"/></symbol><symbol id="log-in-filled"><path d="M11 7 9.6 8.4l2.6 2.6H2v2h10.2l-2.6 2.6L11 17l5-5zm9 12h-8v2h8c1.1 0 2-.9 2-2V5c0-1.1-.9-2-2-2h-8v2h8z"/></symbol><symbol id="log-out-filled"><path d="m17 7-1.41 1.41L18.17 11H8v2h10.17l-2.58 2.58L17 17l5-5zM4 5h8V3H4c-1.1 0-2 .9-2 2v14c0 1.1.9 2 2 2h8v-2H4z"/></symbol><symbol id="plus-filled"><path d="M19 13h-6v6h-2v-6H5v-2h6V5h2v6h6z"/></symbol><symbol id="search-filled"><path d="M15.5 14h-.79l-.28-.27A6.47 6.47 0 0 0 16 9.5 6.5 6.5 0 1 0 9.5 16c1.61 0 3.09-.59 4.23-1.57l.27.28v.79l5 4.99L20.49 19zm-6 0C7.01 14 5 11.99 5 9.5S7.01 5 9.5 5 14 7.01 14 9.5 11.99 14 9.5 14"/></symbol><symbol id="settings-filled"><path d="M19.14 12.94c.04-.3.06-.61.06-.94 0-.32-.02-.64-.06-.94l2.03-1.58a.996.996 0 0 0 .12-1.21l-1.92-3.32a.996.996 0 0 0-1.22-.43l-2.39.96c-.5-.38-1.03-.7-1.62-.94L13.78 2a1 1 0 0 0-.99-.88H8.95a1 1 0 0 0-.99.88L7.6 4.54c-.59.24-1.13.56-1.62.94l-2.39-.96a.996.996 0 0 0-1.22.43L.45 8.27c-.12.22-.07.47.12.61l2.03 1.58c-.04.3-.06.61-.06.94s.02.64.06.94L.57 13.92a.996.996 0 0 0-.12 1.21l1.92 3.32c.12.22.37.29.6.22l2.39-.96c.5.38 1.03.7 1.62.94l.36 2.54c.05.24.24.41.48.41h3.84c.24 0 .44-.17.5-.41l.36-2.54c.59-.24 1.13-.56 1.62-.94l2.39.96c.23.08.48 0 .6-.22l1.92-3.32c.12-.22.07-.47-.12-.61l-2.03-1.58zM12 15.6c-1.98 0-3.6-1.62-3.6-3.6s1.62-3.6 3.6-3.6 3.6 1.62 3.6 3.6-1.62 3.6-3.6 3.6"/></symbol><symbol id="sliders-filled" viewBox="0 0 24 24"><path d="M10 7H2v2h8v2.5L13.5 8 10 4.5zm9 8h-6v-2.5L9.5 16l3.5 3.5V17h6zm-3-4.5L12.5 7 16 3.5V6h6v2h-6zM6 17H2v2h4v2.5L9.5 18 6 14.5z"/></symbol><symbol id="trash-filled"><path d="M6 19c0 1.1.9 2 2 2h8c1.1 0 2-.9 2-2V7H6zM19 4h-3.5l-1-1h-5l-1 1H5v2h14z"/></symbol><symbol id="user-check-filled" viewBox="0 0 24 24"><path d="M12 12c2.21 0 4-1.79 4-4s-1.79-4-4-4-4 1.79-4 4 1.79 4 4 4m0 2c-2.67 0-8 1.34-8 4v2h16v-2c0-2.66-5.33-4-8-4m-1.55 3.55L8.9 15.9l-1.4 1.4 2.95 2.95L15.7 15l-1.4-1.4z"/></symbol><symbol id="user-circle-filled" viewBox="0 0 24 24"><path d="M12 2C6.48 2 2 6.48 2 12s4.48 10 10 10 10-4.48 10-10S17.52 2 12 2m0 3c1.66 0 3 1.34 3 3s-1.34 3-3 3-3-1.34-3-3 1.34-3 3-3m0 14.2a7.2 7.2 0 0 1-6-3.22c.03-1.99 4-3.08 6-3.08 1.99 0 5.97 1.09 6 3.08a7.2 7.2 0 0 1-6 3.22"/></symbol><symbol id="user-cog-filled" viewBox="0 0 24 24"><path d="M12 12c2.21 0 4-1.79 4-4s-1.79-4-4-4-4 1.79-4 4 1.79 4 4 4m0 2c-2.67 0-8 1.34-8 4v2h16v-2c0-2.66-5.33-4-8-4m8-2h-2V9h2V7h-2V5h2V3h2v2h2v2h-2v2h2v2h-2v1zv-2z"/></symbol><symbol id="user-filled"><path d="M12 12c2.21 0 4-1.79 4-4s-1.79-4-4-4-4 1.79-4 4 1.79 4 4 4m0 2c-2.67 0-8 1.34-8 4v2h16v-2c0-2.66-5.33-4-8-4"/></symbol><symbol id="user-lock-filled" viewBox="0 0 24 24"><path d="M12 12c2.21 0 4-1.79 4-4s-1.79-4-4-4-4 1.79-4 4 1.79 4 4 4m0 2c-2.67 0-8 1.34-8 4v2h16v-2c0-2.66-5.33-4-8-4m6-2h-1V9c0-.55-.45-1-1-1s-1 .45-1 1v3h-1v4h4z"/></symbol><symbol id="user-minus-filled" viewBox="0 0 24 24"><path d="M12 12c2.21 0 4-1.79 4-4s-1.79-4-4-4-4 1.79-4 4 1.79 4 4 4m0 2c-2.67 0-8 1.34-8 4v2h16v-2c0-2.66-5.33-4-8-4m2 2h6v2h-6z"/></symbol><symbol id="user-plus-filled" viewBox="0 0 24 24"><path d="M12 12c2.21 0 4-1.79 4-4s-1.79-4-4-4-4 1.79-4 4 1.79 4 4 4m0 2c-2.67 0-8 1.34-8 4v2h16v-2c0-2.66-5.33-4-8-4m3 3h-3v3h-2v-3H7v-2h3v-3h2v3h3z"/></symbol><symbol id="user-x-filled" viewBox="0 0 24 24"><path d="M12 12c2.21 0 4-1.79 4-4s-1.79-4-4-4-4 1.79-4 4 1.79 4 4 4m0 2c-2.67 0-8 1.34-8 4v2h16v-2c0-2.66-5.33-4-8-4m2.59 2h-1.42l-2.58 2.59L12 20l2.59-2.58L17.17 20l1.41-1.41L16 16l2.58-2.59L17.17 12l-2.58 2.59z"/></symbol><symbol id="users-filled"><path d="M16.5 13c-1.2 0-3.07.34-4.5 1-1.23-.91-2.75-1.5-4.5-1.5C4.23 12.5 0 14.63 0 17v2h24v-2c0-2.37-4.23-4.5-7.5-4.5z"/><circle cx="7.5" cy="7.5" r="3.5"/><circle cx="16.5" cy="7.5" r="3.5"/></symbol><symbol id="x-circle-filled"><path d="M12 2C6.47 2 2 6.47 2 12s4.47 10 10 10 10-4.47 10-10S17.53 2 12 2m5 13.59L15.59 17 12 13.41 8.41 17 7 15.59 10.59 12 7 8.41 8.41 7 12 10.59 15.59 7 17 8.41 13.41 12z"/></symbol></svg>